<svg xmlns="http://www.w3.org/2000/svg" width="260" height="46.051" viewBox="0 0 260 46.051"><g transform="translate(0 0.03)"><path d="M138.677,97.2a24.744,24.744,0,0,1-2.886,12.078,19.239,19.239,0,0,1-8.177,8.07,25.332,25.332,0,0,1-12.292,2.886H96.35V75.29h18.6Q138.677,75.29,138.677,97.2Zm-14.376,0a12.772,12.772,0,0,0-1.336-5.932,9.62,9.62,0,0,0-3.795-4.062,11.329,11.329,0,0,0-5.825-1.443h-3.474v23.729h3.794a9.673,9.673,0,0,0,7.749-3.314,13.254,13.254,0,0,0,2.886-8.871Z" transform="translate(-96.35 -75.16)" fill="#fff"/><path d="M141.959,93.672a16.621,16.621,0,0,1-4.81,12.88,19.026,19.026,0,0,1-13.681,4.65,19.4,19.4,0,0,1-13.628-4.489,18.438,18.438,0,0,1-2.565-21.377,14.643,14.643,0,0,1,6.52-5.772,22.447,22.447,0,0,1,9.727-1.977,21.911,21.911,0,0,1,9.887,2.084,15.445,15.445,0,0,1,6.413,5.825,16.033,16.033,0,0,1,2.138,8.177Zm-13.521,0c0-4.329-1.657-6.52-5.024-6.52s-5.024,2.245-5.024,6.841,1.71,7.215,5.344,7.215,4.7-2.458,4.7-7.482Z" transform="translate(-58.855 -65.217)" fill="#fff"/><path d="M137.3,117.365a12.238,12.238,0,0,1-2.993.855,26.721,26.721,0,0,1-4.97.374,11.918,11.918,0,0,1-8.711-3.046,11.6,11.6,0,0,1-3.153-8.765V94.973H112.4V85.78h5.077V79.474l13.147-3.634v9.94h6.68v9.192h-6.68v9.62c0,2.832,1.122,4.222,3.313,4.222a8.818,8.818,0,0,0,3.367-.695Z" transform="translate(-26.624 -72.77)" fill="#fff"/><path d="M147,120.236H131.773L117.29,75.29h14.483l6.841,27.683a30.413,30.413,0,0,1,.909,4.97h.321a48.657,48.657,0,0,1,.962-5.344l7-27.309h14.109Z" transform="translate(-5.38 -75.16)" fill="#3276b8"/><path d="M155.434,120.366H140.2L125.72,75.42h14.59l6.841,27.683a30.406,30.406,0,0,1,.909,4.97h.535a31.265,31.265,0,0,1,.962-5.344l6.68-27.47h13.735Z" transform="translate(31.242 -75.29)" fill="#3276b8"/><path d="M176.322,120.236V85.872h-.374c-.695,3.527-1.176,5.986-1.55,7.322l-6.627,27.042H155.051l-6.894-26.721c0-.641-.695-3.207-1.5-7.642h-.374q.481,10.689.481,13.147V120.4H134.85V75.29h20.308L161.3,99.713a30.647,30.647,0,0,1,.588,3.046,28.734,28.734,0,0,0,.428,3.527h0a43.036,43.036,0,0,1,1.069-6.734L169.16,75.29h19.934v44.946Z" transform="translate(70.905 -75.16)" fill="#3276b8"/></g></svg>