<?xml version="1.0" encoding="utf-8"?>
<!-- Generator: Adobe Illustrator 22.0.1, SVG Export Plug-In . SVG Version: 6.00 Build 0)  -->
<svg version="1.1" id="logo-dotvvm_1_" xmlns="http://www.w3.org/2000/svg" xmlns:xlink="http://www.w3.org/1999/xlink" x="0px"
	 y="0px" viewBox="0 0 213.6 115.9" style="enable-background:new 0 0 213.6 115.9;" xml:space="preserve">
<style type="text/css">
	.st0{fill:#3176BB;}
	.st1{fill:#3C3D3B;}
</style>
<path id="Fill-1" class="st0" d="M44.1,5.2c0.8-1.6,1.9-3,3.1-4.3c1,2.4,1.8,4.9,2.9,7.3c0.4,1,0.6,2.2,0.1,3.3
	c-0.6,1.4-1.8,2.4-3.2,3c0.5-1.1,1.1-2.2,1-3.5c-0.2-1.4-0.8-2.7-1.4-4c0.3,1.4,0.7,2.8,0.6,4.2c0,1.1-0.4,2.2-1,3.1
	c-1.3-1.6-2.5-3.3-2.9-5.4C43.1,7.6,43.6,6.3,44.1,5.2"/>
<path id="Fill-2" class="st0" d="M56.8,10.7c3.7-2.8,8.3-4.1,12.8-5c-1.1,4.3-2.3,8.6-3.5,12.9c-0.4,2.4-1.2,4.9-3.2,6.5
	c-2.6,2-6.1,2.7-9.3,1.9c1.7-0.9,3.4-1.9,4.8-3.3c0.7-0.8,1.1-1.8,1.5-2.8c0.8-2.1,1.2-4.3,1.5-6.5c-1.1,2.7-2.2,5.4-3.9,7.7
	c-1.4,1.6-3.2,3-5.2,3.8c-0.5-3.8-0.3-7.7,1.1-11.2C54.1,13.1,55.4,11.8,56.8,10.7"/>
<path id="Fill-3" class="st0" d="M25.9,8.8c5.4,1.8,10.7,4.1,15.1,7.7c2.5,2.1,4.9,4.7,5.6,8c1.3,5,0.9,10.4-0.3,15.4
	c-2.4-1.2-4.3-3.2-6-5.3c-0.7-0.9-1.2-2-1.7-3.1c-1.3-3-2.2-6.1-3-9.2c0.1,3.3,0.4,6.7,1.2,9.9c0.3,1.2,0.7,2.4,1.5,3.4
	c1.6,2.2,3.8,3.9,6.1,5.4c-3.5,0.3-7.2-0.5-10.2-2.5c-1.2-0.8-2.4-1.7-3.2-2.9c-1.7-2.5-2.3-5.6-2.4-8.5C27.7,21,26.8,14.9,25.9,8.8
	"/>
<path id="Fill-4" class="st0" d="M10.5,11.1c2.6,0.9,5.2,2,7.5,3.6c1.7,1.2,3.3,2.6,4.1,4.5c1.1,3.2,0.9,6.6,0.1,9.9
	c-1.5-0.8-2.8-2.1-3.8-3.5c-1.1-2-1.8-4.3-2.4-6.5c0.1,2.3,0.3,4.7,1.1,6.9c0.8,1.7,2.4,2.8,3.9,3.9c-2.6,0.3-5.3-0.7-7.1-2.4
	c-1.5-1.5-1.8-3.7-2-5.7C11.5,18,11,14.6,10.5,11.1"/>
<path id="Fill-5" class="st0" d="M76.1,12.5c2-0.3,4.1,0,6.2,0.4c-1.4,1.7-2.7,3.5-4.1,5.2c-0.7,1-1.6,2.2-2.8,2.6
	c-1.6,0.5-3.4-0.1-4.7-1.1c1.2-0.1,2.6-0.2,3.5-1c1-0.9,1.8-2.1,2.6-3.2c-1,0.9-1.9,1.8-3,2.6c-1,0.6-2.2,0.9-3.4,0.9
	c0.6-1.8,1.5-3.7,2.9-5C73.9,13,75,12.7,76.1,12.5"/>
<path id="Fill-6" class="st0" d="M67,28.3c5.3-2.5,11.1-4,16.8-5.2c-2.2,8.1-4.4,16.2-6.5,24.3c-0.8,4.4-2.3,9.1-5.9,12.1
	c-4.9,3.6-11.4,5-17.3,3.6c3.3-1.6,6.5-3.5,9-6.2c1.1-1.2,1.8-2.7,2.4-4.1c1.7-4.2,2.6-8.7,3.2-13.2c-1.5,4.2-3.3,8.3-5.7,12.2
	c-0.7,1.2-1.5,2.4-2.4,3.4c-2.5,2.6-5.4,4.9-8.9,6.1c-0.8-6.9-0.6-14.2,2-20.8c0.7-2.2,2.1-4,3.6-5.6C60.2,31.9,63.5,29.9,67,28.3"
	/>
<path id="Fill-7" class="st0" d="M13.9,37c4.9,1,9.7,2.3,14.3,4.1c3.9,1.6,7.6,3.5,10.8,6.3c2.1,1.9,4.1,4.1,4.9,6.8
	c2.6,6.5,2.8,13.8,2,20.7c-3.8-1.4-6.9-4-9.6-6.9c-3.2-4.4-5.4-9.5-7.3-14.6c0.3,2.4,0.7,4.7,1.3,7c0.7,2.8,1.6,5.7,2.9,8.3
	c0.8,1.5,2.1,2.7,3.4,3.8c2.1,1.8,4.5,3.2,7.1,4.4c-4.5,1.1-9.3,0.6-13.6-1.3c-0.8-0.4-1.6-0.8-2.4-1.3c-1.2-0.7-2.3-1.7-3.2-2.8
	c-2.3-3.1-3.5-6.8-4.1-10.5C18.2,53,16,45,13.9,37"/>
<path id="Fill-8" class="st0" d="M0.5,45.3c2.7-0.5,5.7-1,8.2,0.3c1.9,1.3,3,3.5,3.7,5.6c-1.3,0-2.6-0.3-3.6-1
	c-1-0.7-1.9-1.6-2.8-2.5c0.8,1.2,1.6,2.4,2.7,3.3c1,0.7,2.3,0.8,3.4,0.9c-1.1,0.9-2.6,1.4-4,1.2C7,53.2,6,52.4,5.4,51.5
	C3.8,49.4,2.1,47.4,0.5,45.3"/>
<path id="Fill-9" class="st0" d="M83.9,49.2c0.8-0.8,1.9-1.2,3-1.4c2-0.3,4.1,0,6.1,0.4c-1.4,1.8-2.8,3.5-4.1,5.3
	c-0.7,1-1.5,2.1-2.7,2.5c-1.6,0.5-3.5,0-4.8-1.1c1.2-0.1,2.5-0.2,3.5-1c1.1-0.9,1.8-2,2.6-3.2c-1,0.9-1.9,1.8-3,2.5
	c-1,0.6-2.2,0.8-3.4,0.8C81.7,52.4,82.5,50.6,83.9,49.2"/>
<path id="Fill-10" class="st0" d="M5.8,63.3c4.7-1.6,9.6-2.9,14.6-2.2c0.6,3.7,1.8,7.5,4.1,10.5c-2.4-1.2-4.5-2.8-6.6-4.5
	c1.8,2.2,3.7,4.4,6.1,6c1.1,0.8,2.4,1,3.7,1.2c0.8,0.4,1.6,0.9,2.4,1.3c-2.4,1.5-5.2,2.2-8,1.9c-2.6-0.5-4.7-2.3-6.3-4.3
	C12.4,69.9,9.1,66.6,5.8,63.3"/>
<path id="Fill-11" class="st0" d="M74.5,65c1-0.7,2-1.3,3.2-1.5c1.8-0.3,3.6,0,5.4,0.5c2.1,0.7,4.2,1.6,6.1,2.7
	c-2.7,1.9-5.4,3.7-8,5.6c-1.4,1.2-3.1,2.3-5,2.3c-2.4-0.2-4.7-1.5-6.1-3.5c1.6,0.4,3.4,0.8,5,0.3c2-0.8,3.8-2.2,5.4-3.6
	c-1.9,1-3.8,2-5.9,2.5c-1.6,0.3-3.2,0.2-4.7-0.4C71.2,68.1,72.7,66.3,74.5,65"/>
<path id="Fill-12" class="st1" d="M51,83.9c2.7-5.4,5.4-10.9,8.1-16.3c-0.1,6.9,0.2,13.7,0.8,20.6c0.5,5.6,1.3,11.2,2.7,16.6
	c1,3.5,2.2,7.1,4.5,10.1c-10.3,0-20.5,0-30.8,0c3.2-3.4,5.5-7.6,7-12c2-6.1,2.2-12.7,1-19C46.5,83.9,48.8,83.9,51,83.9"/>
<path id="Fill-13" class="st1" d="M90.5,94.8c0-0.9-0.1-1.7-0.4-2.5c-0.2-0.7-0.6-1.4-1-1.9c-0.4-0.5-1-0.9-1.7-1.2
	c-0.7-0.3-1.4-0.4-2.2-0.4h-2.6v12.2h2.6c0.8,0,1.6-0.2,2.2-0.5c0.7-0.3,1.2-0.7,1.7-1.3c0.4-0.5,0.8-1.2,1-1.9
	C90.3,96.5,90.5,95.6,90.5,94.8z M76.2,106.5V83.1h9c1.9,0,3.6,0.3,5.1,0.9c1.5,0.6,2.7,1.4,3.7,2.5c1,1.1,1.7,2.3,2.2,3.7
	c0.5,1.4,0.8,2.9,0.8,4.5c0,1.8-0.3,3.4-0.8,4.8c-0.6,1.4-1.4,2.7-2.4,3.7c-1,1-2.3,1.8-3.7,2.4c-1.4,0.6-3.1,0.8-4.8,0.8H76.2
	L76.2,106.5z"/>
<path id="Fill-14" class="st1" d="M105,94.8c0,0.8,0.1,1.5,0.3,2.3c0.2,0.7,0.5,1.4,1,2c0.4,0.6,1,1,1.7,1.4
	c0.7,0.3,1.5,0.5,2.4,0.5c0.9,0,1.7-0.2,2.4-0.5c0.7-0.4,1.2-0.8,1.7-1.4c0.4-0.6,0.7-1.2,1-2c0.2-0.7,0.3-1.5,0.3-2.3
	c0-0.8-0.1-1.5-0.3-2.3c-0.2-0.7-0.6-1.4-1-1.9c-0.4-0.6-1-1-1.7-1.3c-0.7-0.3-1.5-0.5-2.3-0.5c-0.9,0-1.7,0.2-2.4,0.5
	c-0.7,0.4-1.2,0.8-1.7,1.4c-0.4,0.6-0.8,1.2-1,2C105.1,93.3,105,94.1,105,94.8z M110.3,106.7c-1.8,0-3.4-0.3-4.8-1
	c-1.4-0.7-2.7-1.6-3.7-2.7c-1-1.1-1.8-2.4-2.4-3.8c-0.6-1.4-0.9-2.9-0.9-4.4c0-1.5,0.3-3,0.9-4.4c0.6-1.4,1.4-2.7,2.5-3.8
	c1.1-1.1,2.3-1.9,3.8-2.6c1.5-0.6,3-1,4.8-1c1.8,0,3.4,0.3,4.8,1c1.4,0.7,2.7,1.6,3.7,2.7c1,1.1,1.8,2.4,2.4,3.8
	c0.6,1.4,0.8,2.9,0.8,4.4c0,1.5-0.3,3-0.9,4.4c-0.6,1.4-1.4,2.7-2.5,3.7c-1.1,1.1-2.3,2-3.8,2.6C113.6,106.3,112,106.7,110.3,106.7
	L110.3,106.7z"/>
<polyline id="Fill-15" class="st1" points="142.7,88.7 136,88.7 136,106.5 129.6,106.5 129.6,88.7 122.9,88.7 122.9,83.1 
	142.7,83.1 142.7,88.7 "/>
<polyline id="Fill-16" class="st0" points="149.5,83.1 154.1,98.4 158.6,83.1 165.3,83.1 156.7,106.5 151.4,106.5 142.8,83.1 
	149.5,83.1 "/>
<polyline id="Fill-17" class="st0" points="171.6,83.1 176.2,98.4 180.7,83.1 187.4,83.1 178.8,106.5 173.5,106.5 164.8,83.1 
	171.6,83.1 "/>
<polyline id="Fill-18" class="st0" points="206.8,106.5 206.8,94.2 202.9,102.8 199.5,102.8 195.6,94.2 195.6,106.5 189.2,106.5 
	189.2,83.1 196.2,83.1 201.2,94.1 206.2,83.1 213.2,83.1 213.2,106.5 206.8,106.5 "/>
</svg>
